<?xml version="1.0" encoding="UTF-8" standalone="no"?>
<!DOCTYPE svg PUBLIC "-//W3C//DTD SVG 1.1//EN"
 "http://www.w3.org/Graphics/SVG/1.1/DTD/svg11.dtd">
<!-- Generated by graphviz version 2.43.0 (0)
 -->
<!-- Title: G Pages: 1 -->
<svg width="1777pt" height="1472pt"
 viewBox="0.00 0.00 1777.10 1472.00" xmlns="http://www.w3.org/2000/svg" xmlns:xlink="http://www.w3.org/1999/xlink">
<g id="graph0" class="graph" transform="scale(1 1) rotate(0) translate(28.8 1443.2)">
<title>G</title>
<polygon fill="white" stroke="transparent" points="-28.8,28.8 -28.8,-1443.2 1748.3,-1443.2 1748.3,28.8 -28.8,28.8"/>
<text text-anchor="start" x="478.25" y="-1393.8" font-family="DejaVu Sans" font-weight="bold" font-size="22.00">MER — Modelo Entidade&#45;Relacionamento (Clínica Veterinária)</text>
<!-- Especie -->
<g id="node1" class="node">
<title>Especie</title>
<polygon fill="#0e8f7e" stroke="black" stroke-width="2" points="192.05,-716.2 55.05,-716.2 55.05,-666.2 192.05,-666.2 192.05,-716.2"/>
<text text-anchor="start" x="88.55" y="-688.7" font-family="DejaVu Sans" font-weight="bold" font-size="15.00" fill="white">ESPÉCIE</text>
</g>
<!-- Especie_0 -->
<g id="node2" class="node">
<title>Especie_0</title>
<ellipse fill="#fff3c4" stroke="#0e8f7e" cx="31.39" cy="-884.16" rx="27" ry="18"/>
<text text-anchor="start" x="25.89" y="-882.06" font-family="DejaVu Sans" text-decoration="underline" font-size="12.00">id</text>
</g>
<!-- Especie&#45;&#45;Especie_0 -->
<g id="edge1" class="edge">
<title>Especie&#45;&#45;Especie_0</title>
<path fill="none" stroke="#444444" d="M111.51,-716.43C92.48,-756.27 55.96,-832.73 39.63,-866.91"/>
</g>
<!-- Especie_1 -->
<g id="node3" class="node">
<title>Especie_1</title>
<ellipse fill="white" stroke="#0e8f7e" cx="31.39" cy="-498.24" rx="31.29" ry="18"/>
<text text-anchor="middle" x="31.39" y="-495.14" font-family="DejaVu Sans" font-size="12.00">nome</text>
</g>
<!-- Especie&#45;&#45;Especie_1 -->
<g id="edge2" class="edge">
<title>Especie&#45;&#45;Especie_1</title>
<path fill="none" stroke="#444444" d="M111.51,-665.97C92.53,-626.24 56.14,-550.06 39.76,-515.75"/>
</g>
<!-- R0 -->
<g id="node29" class="node">
<title>R0</title>
<polygon fill="#f2c94c" stroke="#7a5c00" points="447.55,-727.2 386.55,-691.2 447.55,-655.2 508.55,-691.2 447.55,-727.2"/>
<text text-anchor="middle" x="447.55" y="-688.1" font-family="DejaVu Sans" font-size="12.00">classifica</text>
</g>
<!-- Especie&#45;&#45;R0 -->
<g id="edge24" class="edge">
<title>Especie&#45;&#45;R0</title>
<path fill="none" stroke="#444444" stroke-width="1.8" d="M192.27,-691.2C249.76,-691.2 331.03,-691.2 386.32,-691.2"/>
<text text-anchor="middle" x="218.25" y="-702.4" font-family="DejaVu Sans Bold" font-size="16.00">1</text>
</g>
<!-- Animal -->
<g id="node4" class="node">
<title>Animal</title>
<polygon fill="#0e8f7e" stroke="black" stroke-width="2" points="840.05,-716.2 703.05,-716.2 703.05,-666.2 840.05,-666.2 840.05,-716.2"/>
<text text-anchor="start" x="738.55" y="-688.7" font-family="DejaVu Sans" font-weight="bold" font-size="15.00" fill="white">ANIMAL</text>
</g>
<!-- Animal_0 -->
<g id="node5" class="node">
<title>Animal_0</title>
<ellipse fill="#fff3c4" stroke="#0e8f7e" cx="550.51" cy="-573.84" rx="27" ry="18"/>
<text text-anchor="start" x="545.01" y="-571.74" font-family="DejaVu Sans" text-decoration="underline" font-size="12.00">id</text>
</g>
<!-- Animal&#45;&#45;Animal_0 -->
<g id="edge3" class="edge">
<title>Animal&#45;&#45;Animal_0</title>
<path fill="none" stroke="#444444" d="M724.41,-666.17C677.24,-641.12 606.82,-603.73 571.83,-585.16"/>
</g>
<!-- Animal_1 -->
<g id="node6" class="node">
<title>Animal_1</title>
<ellipse fill="white" stroke="#0e8f7e" cx="646.99" cy="-509.04" rx="31.29" ry="18"/>
<text text-anchor="middle" x="646.99" y="-505.94" font-family="DejaVu Sans" font-size="12.00">nome</text>
</g>
<!-- Animal&#45;&#45;Animal_1 -->
<g id="edge4" class="edge">
<title>Animal&#45;&#45;Animal_1</title>
<path fill="none" stroke="#444444" d="M754.24,-665.87C728.43,-628.14 680.58,-558.16 658.59,-526"/>
</g>
<!-- Animal_2 -->
<g id="node7" class="node">
<title>Animal_2</title>
<ellipse fill="white" stroke="#0e8f7e" cx="771.55" cy="-486" rx="27.17" ry="18"/>
<text text-anchor="middle" x="771.55" y="-482.9" font-family="DejaVu Sans" font-size="12.00">raça</text>
</g>
<!-- Animal&#45;&#45;Animal_2 -->
<g id="edge5" class="edge">
<title>Animal&#45;&#45;Animal_2</title>
<path fill="none" stroke="#444444" d="M771.55,-666.04C771.55,-624.09 771.55,-540.84 771.55,-504.12"/>
</g>
<!-- Animal_3 -->
<g id="node8" class="node">
<title>Animal_3</title>
<ellipse fill="white" stroke="#0e8f7e" cx="896.11" cy="-509.04" rx="73.01" ry="18"/>
<text text-anchor="middle" x="896.11" y="-505.94" font-family="DejaVu Sans" font-size="12.00">data_nascimento</text>
</g>
<!-- Animal&#45;&#45;Animal_3 -->
<g id="edge6" class="edge">
<title>Animal&#45;&#45;Animal_3</title>
<path fill="none" stroke="#444444" d="M788.87,-665.87C814.41,-628.53 861.54,-559.61 883.82,-527.02"/>
</g>
<!-- Animal_4 -->
<g id="node9" class="node">
<title>Animal_4</title>
<ellipse fill="white" stroke="#0e8f7e" cx="992.59" cy="-573.84" rx="27.9" ry="18"/>
<text text-anchor="middle" x="992.59" y="-570.74" font-family="DejaVu Sans" font-size="12.00">peso</text>
</g>
<!-- Animal&#45;&#45;Animal_4 -->
<g id="edge7" class="edge">
<title>Animal&#45;&#45;Animal_4</title>
<path fill="none" stroke="#444444" d="M818.7,-666.17C865.74,-641.19 935.91,-603.93 971,-585.31"/>
</g>
<!-- R2 -->
<g id="node31" class="node">
<title>R2</title>
<polygon fill="#f2c94c" stroke="#7a5c00" points="1095.55,-727.2 1034.55,-691.2 1095.55,-655.2 1156.55,-691.2 1095.55,-727.2"/>
<text text-anchor="middle" x="1095.55" y="-688.1" font-family="DejaVu Sans" font-size="12.00">recebe</text>
</g>
<!-- Animal&#45;&#45;R2 -->
<g id="edge28" class="edge">
<title>Animal&#45;&#45;R2</title>
<path fill="none" stroke="#444444" stroke-width="1.8" d="M840.27,-691.2C897.76,-691.2 979.03,-691.2 1034.32,-691.2"/>
<text text-anchor="middle" x="866.25" y="-702.4" font-family="DejaVu Sans Bold" font-size="16.00">1</text>
</g>
<!-- Tutor -->
<g id="node10" class="node">
<title>Tutor</title>
<polygon fill="#0e8f7e" stroke="black" stroke-width="2" points="840.05,-1184.2 703.05,-1184.2 703.05,-1134.2 840.05,-1134.2 840.05,-1184.2"/>
<text text-anchor="start" x="742.55" y="-1156.7" font-family="DejaVu Sans" font-weight="bold" font-size="15.00" fill="white">TUTOR</text>
</g>
<!-- Tutor_0 -->
<g id="node11" class="node">
<title>Tutor_0</title>
<ellipse fill="#fff3c4" stroke="#0e8f7e" cx="1032.19" cy="-1212.48" rx="27" ry="18"/>
<text text-anchor="start" x="1026.69" y="-1210.38" font-family="DejaVu Sans" text-decoration="underline" font-size="12.00">id</text>
</g>
<!-- Tutor&#45;&#45;Tutor_0 -->
<g id="edge8" class="edge">
<title>Tutor&#45;&#45;Tutor_0</title>
<path fill="none" stroke="#444444" d="M840.38,-1173.27C894.82,-1184.4 967.85,-1199.33 1006.19,-1207.16"/>
</g>
<!-- Tutor_1 -->
<g id="node12" class="node">
<title>Tutor_1</title>
<ellipse fill="white" stroke="#0e8f7e" cx="935.71" cy="-1321.92" rx="31.29" ry="18"/>
<text text-anchor="middle" x="935.71" y="-1318.82" font-family="DejaVu Sans" font-size="12.00">nome</text>
</g>
<!-- Tutor&#45;&#45;Tutor_1 -->
<g id="edge9" class="edge">
<title>Tutor&#45;&#45;Tutor_1</title>
<path fill="none" stroke="#444444" d="M796.85,-1184.27C831.02,-1218.15 890.96,-1277.56 919.6,-1305.94"/>
</g>
<!-- Tutor_2 -->
<g id="node13" class="node">
<title>Tutor_2</title>
<ellipse fill="white" stroke="#0e8f7e" cx="771.55" cy="-1364.4" rx="27" ry="18"/>
<text text-anchor="middle" x="771.55" y="-1361.3" font-family="DejaVu Sans" font-size="12.00">cpf</text>
</g>
<!-- Tutor&#45;&#45;Tutor_2 -->
<g id="edge10" class="edge">
<title>Tutor&#45;&#45;Tutor_2</title>
<path fill="none" stroke="#444444" d="M771.55,-1184.36C771.55,-1226.31 771.55,-1309.56 771.55,-1346.28"/>
</g>
<!-- Tutor_3 -->
<g id="node14" class="node">
<title>Tutor_3</title>
<ellipse fill="white" stroke="#0e8f7e" cx="607.39" cy="-1321.92" rx="40.76" ry="18"/>
<text text-anchor="middle" x="607.39" y="-1318.82" font-family="DejaVu Sans" font-size="12.00">telefone</text>
</g>
<!-- Tutor&#45;&#45;Tutor_3 -->
<g id="edge11" class="edge">
<title>Tutor&#45;&#45;Tutor_3</title>
<path fill="none" stroke="#444444" d="M746.26,-1184.27C712.45,-1217.79 653.41,-1276.31 624.43,-1305.04"/>
</g>
<!-- Tutor_4 -->
<g id="node15" class="node">
<title>Tutor_4</title>
<ellipse fill="white" stroke="#0e8f7e" cx="510.91" cy="-1212.48" rx="30.56" ry="18"/>
<text text-anchor="middle" x="510.91" y="-1209.38" font-family="DejaVu Sans" font-size="12.00">email</text>
</g>
<!-- Tutor&#45;&#45;Tutor_4 -->
<g id="edge12" class="edge">
<title>Tutor&#45;&#45;Tutor_4</title>
<path fill="none" stroke="#444444" d="M702.73,-1173.27C649.8,-1184.09 579.29,-1198.5 540.18,-1206.5"/>
</g>
<!-- R1 -->
<g id="node30" class="node">
<title>R1</title>
<polygon fill="#f2c94c" stroke="#7a5c00" points="771.55,-957.6 710.55,-921.6 771.55,-885.6 832.55,-921.6 771.55,-957.6"/>
<text text-anchor="middle" x="771.55" y="-918.5" font-family="DejaVu Sans" font-size="12.00">possui</text>
</g>
<!-- Tutor&#45;&#45;R1 -->
<g id="edge26" class="edge">
<title>Tutor&#45;&#45;R1</title>
<path fill="none" stroke="#444444" stroke-width="1.8" d="M771.55,-1133.77C771.55,-1091.39 771.55,-1006.19 771.55,-957.64"/>
<text text-anchor="middle" x="786.55" y="-1103.99" font-family="DejaVu Sans Bold" font-size="16.00">1</text>
</g>
<!-- Consulta -->
<g id="node16" class="node">
<title>Consulta</title>
<polygon fill="#0e8f7e" stroke="black" stroke-width="2" points="1488.05,-716.2 1351.05,-716.2 1351.05,-666.2 1488.05,-666.2 1488.05,-716.2"/>
<text text-anchor="start" x="1376.05" y="-688.7" font-family="DejaVu Sans" font-weight="bold" font-size="15.00" fill="white">CONSULTA</text>
</g>
<!-- Consulta_0 -->
<g id="node17" class="node">
<title>Consulta_0</title>
<ellipse fill="#fff3c4" stroke="#0e8f7e" cx="1554.91" cy="-513.36" rx="27" ry="18"/>
<text text-anchor="start" x="1549.41" y="-511.26" font-family="DejaVu Sans" text-decoration="underline" font-size="12.00">id</text>
</g>
<!-- Consulta&#45;&#45;Consulta_0 -->
<g id="edge13" class="edge">
<title>Consulta&#45;&#45;Consulta_0</title>
<path fill="none" stroke="#444444" d="M1438.66,-666.1C1466.79,-629.14 1518.58,-561.1 1542.37,-529.84"/>
</g>
<!-- Consulta_1 -->
<g id="node18" class="node">
<title>Consulta_1</title>
<ellipse fill="white" stroke="#0e8f7e" cx="1666.51" cy="-607.68" rx="47.3" ry="18"/>
<text text-anchor="middle" x="1666.51" y="-604.58" font-family="DejaVu Sans" font-size="12.00">data_hora</text>
</g>
<!-- Consulta&#45;&#45;Consulta_1 -->
<g id="edge14" class="edge">
<title>Consulta&#45;&#45;Consulta_1</title>
<path fill="none" stroke="#444444" d="M1488.35,-667.94C1534.59,-652.3 1593.65,-632.32 1630.79,-619.76"/>
</g>
<!-- Consulta_2 -->
<g id="node19" class="node">
<title>Consulta_2</title>
<ellipse fill="white" stroke="#0e8f7e" cx="1683.79" cy="-733.68" rx="35.91" ry="18"/>
<text text-anchor="middle" x="1683.79" y="-730.58" font-family="DejaVu Sans" font-size="12.00">motivo</text>
</g>
<!-- Consulta&#45;&#45;Consulta_2 -->
<g id="edge15" class="edge">
<title>Consulta&#45;&#45;Consulta_2</title>
<path fill="none" stroke="#444444" d="M1488.29,-702.25C1540.13,-710.58 1609.03,-721.66 1649.67,-728.19"/>
</g>
<!-- Consulta_3 -->
<g id="node20" class="node">
<title>Consulta_3</title>
<ellipse fill="white" stroke="#0e8f7e" cx="1600.27" cy="-843.84" rx="52.15" ry="18"/>
<text text-anchor="middle" x="1600.27" y="-840.74" font-family="DejaVu Sans" font-size="12.00">diagnóstico</text>
</g>
<!-- Consulta&#45;&#45;Consulta_3 -->
<g id="edge16" class="edge">
<title>Consulta&#45;&#45;Consulta_3</title>
<path fill="none" stroke="#444444" d="M1449.4,-716.41C1486.49,-747.74 1548.77,-800.33 1580.46,-827.1"/>
</g>
<!-- Consulta_4 -->
<g id="node21" class="node">
<title>Consulta_4</title>
<ellipse fill="white" stroke="#0e8f7e" cx="1447.63" cy="-894.96" rx="28.87" ry="18"/>
<text text-anchor="middle" x="1447.63" y="-891.86" font-family="DejaVu Sans" font-size="12.00">valor</text>
</g>
<!-- Consulta&#45;&#45;Consulta_4 -->
<g id="edge17" class="edge">
<title>Consulta&#45;&#45;Consulta_4</title>
<path fill="none" stroke="#444444" d="M1423.05,-716.59C1428.8,-758.31 1440.11,-840.33 1445.13,-876.77"/>
</g>
<!-- Consulta_5 -->
<g id="node22" class="node">
<title>Consulta_5</title>
<ellipse fill="white" stroke="#0e8f7e" cx="1284.91" cy="-869.04" rx="32.75" ry="18"/>
<text text-anchor="middle" x="1284.91" y="-865.94" font-family="DejaVu Sans" font-size="12.00">status</text>
</g>
<!-- Consulta&#45;&#45;Consulta_5 -->
<g id="edge18" class="edge">
<title>Consulta&#45;&#45;Consulta_5</title>
<path fill="none" stroke="#444444" d="M1400.55,-716.3C1372.71,-753.07 1321.59,-820.6 1297.76,-852.07"/>
</g>
<!-- Veterinario -->
<g id="node23" class="node">
<title>Veterinario</title>
<polygon fill="#0e8f7e" stroke="black" stroke-width="2" points="1488.05,-248.2 1351.05,-248.2 1351.05,-198.2 1488.05,-198.2 1488.05,-248.2"/>
<text text-anchor="start" x="1363.05" y="-220.7" font-family="DejaVu Sans" font-weight="bold" font-size="15.00" fill="white">VETERINÁRIO</text>
</g>
<!-- Veterinario_0 -->
<g id="node24" class="node">
<title>Veterinario_0</title>
<ellipse fill="#fff3c4" stroke="#0e8f7e" cx="1153.87" cy="-187.92" rx="27" ry="18"/>
<text text-anchor="start" x="1148.37" y="-185.82" font-family="DejaVu Sans" text-decoration="underline" font-size="12.00">id</text>
</g>
<!-- Veterinario&#45;&#45;Veterinario_0 -->
<g id="edge19" class="edge">
<title>Veterinario&#45;&#45;Veterinario_0</title>
<path fill="none" stroke="#444444" d="M1350.79,-214.07C1295.29,-206.7 1220.16,-196.72 1180.67,-191.48"/>
</g>
<!-- Veterinario_1 -->
<g id="node25" class="node">
<title>Veterinario_1</title>
<ellipse fill="white" stroke="#0e8f7e" cx="1246.03" cy="-66.24" rx="31.29" ry="18"/>
<text text-anchor="middle" x="1246.03" y="-63.14" font-family="DejaVu Sans" font-size="12.00">nome</text>
</g>
<!-- Veterinario&#45;&#45;Veterinario_1 -->
<g id="edge20" class="edge">
<title>Veterinario&#45;&#45;Veterinario_1</title>
<path fill="none" stroke="#444444" d="M1391.68,-197.98C1355.46,-165.22 1293.34,-109.03 1263.3,-81.86"/>
</g>
<!-- Veterinario_2 -->
<g id="node26" class="node">
<title>Veterinario_2</title>
<ellipse fill="white" stroke="#0e8f7e" cx="1419.55" cy="-18" rx="28.87" ry="18"/>
<text text-anchor="middle" x="1419.55" y="-14.9" font-family="DejaVu Sans" font-size="12.00">crmv</text>
</g>
<!-- Veterinario&#45;&#45;Veterinario_2 -->
<g id="edge21" class="edge">
<title>Veterinario&#45;&#45;Veterinario_2</title>
<path fill="none" stroke="#444444" d="M1419.55,-198.04C1419.55,-156.09 1419.55,-72.84 1419.55,-36.12"/>
</g>
<!-- Veterinario_3 -->
<g id="node27" class="node">
<title>Veterinario_3</title>
<ellipse fill="white" stroke="#0e8f7e" cx="1593.07" cy="-66.24" rx="60.16" ry="18"/>
<text text-anchor="middle" x="1593.07" y="-63.14" font-family="DejaVu Sans" font-size="12.00">especialidade</text>
</g>
<!-- Veterinario&#45;&#45;Veterinario_3 -->
<g id="edge22" class="edge">
<title>Veterinario&#45;&#45;Veterinario_3</title>
<path fill="none" stroke="#444444" d="M1447.43,-197.98C1482.88,-165.92 1543.15,-111.4 1573.86,-83.62"/>
</g>
<!-- Veterinario_4 -->
<g id="node28" class="node">
<title>Veterinario_4</title>
<ellipse fill="white" stroke="#0e8f7e" cx="1685.23" cy="-187.92" rx="28.14" ry="18"/>
<text text-anchor="middle" x="1685.23" y="-184.82" font-family="DejaVu Sans" font-size="12.00">ativo</text>
</g>
<!-- Veterinario&#45;&#45;Veterinario_4 -->
<g id="edge23" class="edge">
<title>Veterinario&#45;&#45;Veterinario_4</title>
<path fill="none" stroke="#444444" d="M1488.32,-214.07C1543.36,-206.76 1617.7,-196.89 1657.45,-191.61"/>
</g>
<!-- R3 -->
<g id="node32" class="node">
<title>R3</title>
<polygon fill="#f2c94c" stroke="#7a5c00" points="1419.55,-496.8 1358.55,-460.8 1419.55,-424.8 1480.55,-460.8 1419.55,-496.8"/>
<text text-anchor="middle" x="1419.55" y="-457.7" font-family="DejaVu Sans" font-size="12.00">realiza</text>
</g>
<!-- Veterinario&#45;&#45;R3 -->
<g id="edge30" class="edge">
<title>Veterinario&#45;&#45;R3</title>
<path fill="none" stroke="#444444" stroke-width="1.8" d="M1419.55,-248.63C1419.55,-291.01 1419.55,-376.21 1419.55,-424.76"/>
<text text-anchor="middle" x="1404.55" y="-270.81" font-family="DejaVu Sans Bold" font-size="16.00">1</text>
</g>
<!-- R0&#45;&#45;Animal -->
<g id="edge25" class="edge">
<title>R0&#45;&#45;Animal</title>
<path fill="none" stroke="#444444" stroke-width="1.8" d="M508.88,-691.2C564.19,-691.2 645.45,-691.2 702.91,-691.2"/>
<text text-anchor="middle" x="676.93" y="-672.4" font-family="DejaVu Sans Bold" font-size="16.00">N</text>
</g>
<!-- R1&#45;&#45;Animal -->
<g id="edge27" class="edge">
<title>R1&#45;&#45;Animal</title>
<path fill="none" stroke="#444444" stroke-width="1.8" d="M771.55,-885.35C771.55,-838.2 771.55,-757.08 771.55,-716.24"/>
<text text-anchor="middle" x="756.55" y="-738.42" font-family="DejaVu Sans Bold" font-size="16.00">N</text>
</g>
<!-- R2&#45;&#45;Consulta -->
<g id="edge29" class="edge">
<title>R2&#45;&#45;Consulta</title>
<path fill="none" stroke="#444444" stroke-width="1.8" d="M1156.88,-691.2C1212.19,-691.2 1293.45,-691.2 1350.91,-691.2"/>
<text text-anchor="middle" x="1324.93" y="-672.4" font-family="DejaVu Sans Bold" font-size="16.00">N</text>
</g>
<!-- R3&#45;&#45;Consulta -->
<g id="edge31" class="edge">
<title>R3&#45;&#45;Consulta</title>
<path fill="none" stroke="#444444" stroke-width="1.8" d="M1419.55,-497.05C1419.55,-544.2 1419.55,-625.32 1419.55,-666.16"/>
<text text-anchor="middle" x="1434.55" y="-636.38" font-family="DejaVu Sans Bold" font-size="16.00">N</text>
</g>
</g>
</svg>
